<svg width="960" height="960" viewBox="0 0 960 960" fill="none" xmlns="http://www.w3.org/2000/svg">
<path d="M429.582 757.43L93.7242 704.246L907.754 178.202L429.582 757.43Z" fill="#71A7C8" stroke="#7084B7" stroke-width="2"/>
<path d="M191.307 260.182H203.636V332.966C203.636 339.462 202.443 344.981 200.057 349.521C197.67 354.062 194.306 357.509 189.964 359.862C185.623 362.215 180.502 363.392 174.602 363.392C169.034 363.392 164.079 362.381 159.737 360.359C155.395 358.304 151.982 355.388 149.496 351.609C147.01 347.831 145.767 343.34 145.767 338.136H157.898C157.898 341.02 158.61 343.539 160.036 345.693C161.494 347.814 163.482 349.472 166.001 350.665C168.52 351.858 171.387 352.455 174.602 352.455C178.149 352.455 181.165 351.709 183.651 350.217C186.136 348.726 188.026 346.538 189.318 343.655C190.644 340.738 191.307 337.175 191.307 332.966V260.182ZM258.771 363.591C251.413 363.591 245.066 361.967 239.73 358.719C234.427 355.438 230.334 350.864 227.45 344.997C224.6 339.098 223.175 332.237 223.175 324.415C223.175 316.593 224.6 309.699 227.45 303.733C230.334 297.734 234.344 293.061 239.482 289.713C244.652 286.332 250.684 284.642 257.578 284.642C261.555 284.642 265.483 285.305 269.361 286.631C273.239 287.956 276.768 290.111 279.95 293.094C283.132 296.044 285.668 299.955 287.557 304.827C289.446 309.699 290.391 315.698 290.391 322.824V327.795H231.527V317.653H278.459C278.459 313.345 277.597 309.5 275.874 306.119C274.183 302.739 271.764 300.071 268.615 298.115C265.5 296.16 261.821 295.182 257.578 295.182C252.905 295.182 248.861 296.342 245.447 298.662C242.067 300.949 239.465 303.932 237.642 307.611C235.819 311.29 234.908 315.234 234.908 319.443V326.205C234.908 331.972 235.902 336.86 237.891 340.871C239.912 344.848 242.713 347.881 246.293 349.969C249.872 352.024 254.032 353.051 258.771 353.051C261.854 353.051 264.638 352.62 267.124 351.759C269.643 350.864 271.813 349.538 273.636 347.781C275.459 345.991 276.868 343.771 277.862 341.119L289.197 344.301C288.004 348.146 285.999 351.527 283.182 354.443C280.365 357.327 276.884 359.58 272.741 361.205C268.598 362.795 263.942 363.591 258.771 363.591ZM319.972 316.062V362H308.239V285.636H319.574V297.568H320.568C322.358 293.69 325.076 290.575 328.722 288.222C332.367 285.835 337.074 284.642 342.841 284.642C348.011 284.642 352.536 285.703 356.413 287.824C360.291 289.912 363.307 293.094 365.462 297.369C367.616 301.612 368.693 306.981 368.693 313.477V362H356.96V314.273C356.96 308.274 355.402 303.6 352.287 300.253C349.171 296.872 344.896 295.182 339.46 295.182C335.715 295.182 332.367 295.994 329.418 297.618C326.501 299.242 324.197 301.612 322.507 304.727C320.817 307.843 319.972 311.621 319.972 316.062ZM394.956 390.636C392.967 390.636 391.194 390.471 389.636 390.139C388.078 389.841 387.001 389.543 386.404 389.244L389.387 378.903C392.238 379.633 394.757 379.898 396.944 379.699C399.132 379.5 401.071 378.522 402.761 376.766C404.484 375.042 406.059 372.241 407.484 368.364L409.672 362.398L381.433 285.636H394.16L415.24 346.489H416.035L437.115 285.636H449.842L417.427 373.136C415.969 377.08 414.163 380.345 412.008 382.93C409.854 385.549 407.351 387.488 404.501 388.747C401.684 390.007 398.502 390.636 394.956 390.636ZM474.078 285.636L492.374 316.858L510.669 285.636H524.192L499.533 323.818L524.192 362H510.669L492.374 332.369L474.078 362H460.556L484.817 323.818L460.556 285.636H474.078Z" fill="black"/>
</svg>
